<?xml version="1.0" encoding="UTF-8"?>
<svg version="1.1" xmlns="http://www.w3.org/2000/svg" width="1200" height="600">
<path d="M0 0 C2 1.5625 2 1.5625 3 4 C3 7.5625 3 7.5625 2 11 C-2.37669488 14.5441714 -7.71301977 15.2983613 -13.09375 16.41015625 C-14.10199829 16.62334 -15.11024658 16.83652374 -16.14904785 17.0561676 C-28.52830894 19.61038649 -41.00883969 21.52496881 -53.5 23.4375 C-56.02074625 23.82779932 -58.54141593 24.21859347 -61.06201172 24.60986328 C-66.06265017 25.38528674 -71.06385961 26.15688044 -76.06542969 26.92626953 C-82.14381928 27.86375489 -88.21721378 28.82977205 -94.2890625 29.80859375 C-119.53101283 33.86002195 -144.722049 36.60205469 -170.25 38.125 C-172.13477051 38.23859863 -172.13477051 38.23859863 -174.05761719 38.35449219 C-209.12886486 40.26684001 -244.30000101 40.40675645 -279.4121846 40.96279168 C-286.47448445 41.07471541 -293.53674217 41.18920245 -300.59899843 41.30383885 C-315.06595561 41.53861619 -329.53296003 41.77038058 -344 42 C-343.68688873 42.70008179 -343.37377747 43.40016357 -343.05117798 44.12145996 C-336.0198079 59.85651036 -329.09896023 75.63071639 -322.375 91.5 C-321.51598827 93.52345352 -320.65693785 95.54689063 -319.79785156 97.5703125 C-311.12393075 118.01563783 -302.52184979 138.49083323 -294 159 C-293.6553772 159.82890747 -293.31075439 160.65781494 -292.95568848 161.51184082 C-275.83881579 202.69874675 -259.90387841 244.33283812 -244 286 C-229.27141475 284.36298598 -214.56491313 282.58704161 -199.8671875 280.6953125 C-199.07093145 280.59291008 -198.27467541 280.49050766 -197.45429039 280.38500214 C-194.15220241 279.96031797 -190.85013159 279.53550067 -187.54808331 279.11050797 C-99.97524667 267.84629927 -99.97524667 267.84629927 -61 266 C-59.66364502 265.92410645 -59.66364502 265.92410645 -58.30029297 265.84667969 C-56.01254908 265.72204853 -53.72746868 265.63265045 -51.4375 265.5625 C-50.28121094 265.52253906 -49.12492187 265.48257812 -47.93359375 265.44140625 C-43.96619381 266.19684991 -42.46555423 267.87574483 -40 271 C-39.875 274.125 -39.875 274.125 -41 277 C-44.90782054 280.00169799 -48.0020679 280.40939448 -52.859375 280.5546875 C-54.27060285 280.60902151 -55.68181635 280.66372898 -57.09301758 280.71875 C-57.84579987 280.74324219 -58.59858215 280.76773437 -59.37417603 280.79296875 C-96.68672187 282.08127748 -133.76318612 287.12415039 -170.77825546 291.73150635 C-172.5376229 291.95049315 -174.29702437 292.16920674 -176.05646133 292.38763428 C-196.75542056 294.95784359 -217.41028997 297.64913361 -238 301 C-237.5366626 302.15834351 -237.5366626 302.15834351 -237.06396484 303.34008789 C-236.61746582 304.45633545 -236.1709668 305.57258301 -235.7109375 306.72265625 C-235.46048172 307.34872772 -235.21002594 307.97479919 -234.95198059 308.61984253 C-233.47309888 312.31675451 -231.99466284 316.01384397 -230.5168457 319.71118164 C-227.05907603 328.36067774 -223.596305 337.0081247 -220.12391663 345.65176392 C-203.43859868 387.18901524 -186.76600284 428.73290832 -172 471 C-171.7535675 471.70429138 -171.50713501 472.40858276 -171.25323486 473.13421631 C-164.24522726 493.19933927 -158.07618128 513.35360883 -153 534 C-152.78794922 534.85102295 -152.57589844 535.7020459 -152.35742188 536.57885742 C-151.26022051 541.19266726 -150.67802583 545.54547761 -150.625 550.3125 C-150.59664062 551.48425781 -150.56828125 552.65601563 -150.5390625 553.86328125 C-151.08861808 557.60305352 -152.03131099 558.74074035 -155 561 C-157.375 561.5625 -157.375 561.5625 -160 561 C-164.82509945 557.55075941 -167.05896148 554.67490612 -169.47265625 549.14453125 C-169.76253922 548.49063919 -170.05242218 547.83674713 -170.35108948 547.16304016 C-171.25209951 545.11596824 -172.12856972 543.05981685 -173 541 C-173.27430847 540.36028259 -173.54861694 539.72056519 -173.83123779 539.0614624 C-175.45793946 535.26704669 -177.05172041 531.45979491 -178.62854004 527.64440918 C-180.01961076 524.27934887 -181.42121001 520.91869121 -182.82421875 517.55859375 C-183.09771149 516.90347809 -183.37120422 516.24836243 -183.65298462 515.57339478 C-186.25058048 509.36915317 -188.95491417 503.21603316 -191.72827148 497.08862305 C-194.35880917 491.27286794 -195.40276595 487.34356379 -195 481 C-191.1496895 478.43312633 -189.41430237 479.16711276 -185 480 C-187.79716892 470.1031078 -191.29047409 460.46956357 -194.8125 450.8125 C-195.17294403 449.82309418 -195.53338806 448.83368835 -195.90475464 447.81430054 C-205.25558578 422.27340116 -215.44268849 397.05565983 -225.5625 371.8125 C-225.98338017 370.76253971 -226.40426033 369.71257942 -226.83789444 368.63080215 C-229.70184294 361.48798053 -232.5698807 354.34681004 -235.44140625 347.20703125 C-235.81030724 346.28970215 -236.17920822 345.37237305 -236.55928802 344.42724609 C-237.63053552 341.76470471 -238.70281032 339.10258017 -239.77563477 336.44067383 C-240.11636206 335.59464411 -240.45708935 334.74861439 -240.80814171 333.8769474 C-242.69698825 329.19627186 -244.60555018 324.52435949 -246.53366089 319.85971069 C-247.16003527 318.34116879 -247.16003527 318.34116879 -247.79906368 316.79194927 C-248.60815909 314.83286763 -249.42022889 312.87501114 -250.23561192 310.91853809 C-250.77839236 309.60367688 -250.77839236 309.60367688 -251.33213806 308.26225281 C-251.65471557 307.48602412 -251.97729307 306.70979544 -252.30964565 305.91004467 C-253 304 -253 304 -253 302 C-253.72453369 302.12189697 -254.44906738 302.24379395 -255.19555664 302.36938477 C-264.91100858 303.93984005 -274.64614835 304.97635531 -284.4375 305.9375 C-285.72551514 306.06581207 -285.72551514 306.06581207 -287.03955078 306.19671631 C-301.71469255 307.65619172 -316.40233463 308.89353811 -331.11108398 309.96069336 C-339.61594275 310.58743386 -348.04620426 311.43583944 -356.4987793 312.57421875 C-367.03445537 313.8554557 -367.03445537 313.8554557 -371 313 C-372.8125 311.2109375 -372.8125 311.2109375 -374 309 C-373.6875 305.25 -373.6875 305.25 -373 302 C-366.94555052 299.47398304 -361.36253231 298.23959841 -354.86328125 297.47265625 C-353.87475662 297.35011978 -352.88623199 297.22758331 -351.86775208 297.10133362 C-338.67560501 295.52358754 -325.42885258 294.50066206 -312.1875 293.4375 C-307.07654229 293.02290707 -301.96589067 292.60473833 -296.85546875 292.18359375 C-295.6423703 292.08412445 -294.42927185 291.98465515 -293.17941284 291.88217163 C-285.58314584 291.24847047 -278.00622954 290.52151467 -270.4407196 289.58702087 C-266.60184644 289.12239434 -262.86647518 288.91897391 -259 289 C-275.00091601 245.28881906 -291.68488705 201.81904215 -310.00238037 159.02139282 C-312.50187433 153.17986045 -314.97271752 147.32664668 -317.43359375 141.46875 C-325.66306988 121.88718588 -333.96342467 102.33651695 -342.35614014 82.8243103 C-343.31581351 80.59255993 -344.27437747 78.36033213 -345.23175049 76.12759399 C-352.11947687 57.31111194 -352.11947687 57.31111194 -363 41 C-363 40.34 -363 39.68 -363 39 C-363.99 38.67 -364.98 38.34 -366 38 C-367.75 36.375 -367.75 36.375 -369 34 C-368.88030748 30.58876307 -368.78405518 28.06486821 -366.72460938 25.26782227 C-364.40105801 23.55969624 -363.35849794 23.84971406 -360.53125 24.27734375 C-355.32919861 24.90373755 -350.20135365 25.18638002 -344.96875 25.31640625 C-344.14306015 25.3376355 -343.3173703 25.35886475 -342.46665955 25.3807373 C-339.81118745 25.44568915 -337.15564096 25.50488412 -334.5 25.5625 C-333.56785675 25.58334656 -332.6357135 25.60419312 -331.67532349 25.62567139 C-313.44712969 26.02733811 -295.23178057 26.18040848 -277 26 C-275.87343994 25.98904297 -274.74687988 25.97808594 -273.58618164 25.96679688 C-214.4047441 25.37283329 -155.20367424 24.62461268 -96.62524414 15.41265869 C-93.76680317 14.9633441 -90.90783061 14.51750449 -88.04882812 14.07177734 C-48.30982188 8.24126131 -48.30982188 8.24126131 -8.94506836 0.39941406 C-5.84718981 -0.23672618 -3.13615779 -0.37633893 0 0 Z " fill="#000000" transform="translate(464,22)"/>
<path d="M0 0 C4.61076241 4.37836512 6.08293708 10.18026202 8 16.0625 C8.33 17.01705078 8.66 17.97160156 9 18.95507812 C14.39730093 35.24185535 16.62893381 52.27725306 18.5234375 69.265625 C18.74730264 71.21521985 18.97194255 73.16472587 19.19728088 75.114151 C19.67914129 79.29592138 20.15589936 83.47822926 20.62863159 87.66104126 C21.39208761 94.41339449 22.16893201 101.16417094 22.94750977 107.91479492 C24.06299484 117.59617865 25.17397894 127.27806678 26.28076172 136.96044922 C26.42212272 138.19703813 26.56348372 139.43362703 26.70912838 140.70768833 C26.9959177 143.21655024 27.28270186 145.72541274 27.5694809 148.23427582 C30.01159406 169.59528981 32.46253289 190.95526511 34.9375 212.3125 C35.08348129 213.57229424 35.22946259 214.83208847 35.37986755 216.13005829 C40.76216799 262.53219159 46.69248713 308.84503038 52.98437119 355.13180256 C54.83893592 368.77759152 56.66421889 382.42718763 58.48046875 396.078125 C58.62208939 397.14239338 58.76371002 398.20666176 58.90962219 399.30318069 C59.46986198 403.51370927 60.02999568 407.72425193 60.5899086 411.93482399 C62.00062697 422.54293041 63.41602335 433.15041106 64.83203125 443.7578125 C65.05543988 445.43166034 65.27884398 447.10550879 65.50224304 448.77935791 C66.00143918 452.51957944 66.50069717 456.25979271 67 460 C68.99422279 451.59979229 70.79375675 443.1887959 72.3828125 434.703125 C72.82739568 432.35906968 73.27231457 430.01507802 73.7175293 427.67114258 C73.94693207 426.46003815 74.17633484 425.24893372 74.41268921 424.00112915 C98.09692769 299.27658687 98.09692769 299.27658687 115.21484375 285.99609375 C119.40377287 283.6587263 123.04937148 284.74073768 127.4375 285.9375 C135.56468966 289.81220843 141.0747364 299.60892348 146 306.8125 C146.66080566 307.76954834 147.32161133 308.72659668 148.00244141 309.71264648 C155.59566284 320.76629806 163.00294947 331.94748317 170.3984375 343.1340332 C176.41864572 352.22664884 182.59584003 361.1737895 189 370 C189.63196289 370.87744873 190.26392578 371.75489746 190.91503906 372.65893555 C197.47185338 381.74504375 204.14686381 390.63951838 211.5 399.09765625 C213.84855593 401.8241829 216.08289568 404.61360776 218.3125 407.4375 C233.56123319 426.07785534 253.4613445 444.89719932 278 449 C283.99690896 449.49419852 288.88269643 449.53337628 294 446 C297.87243301 441.77713197 300.15659237 437.01031317 302.625 431.90234375 C303.50513149 430.11389448 304.38534222 428.32548419 305.265625 426.53710938 C306.63726366 423.73159665 308.00618822 420.92478797 309.37304688 418.11694336 C310.70022532 415.39617994 312.03716252 412.68037794 313.375 409.96484375 C313.77928223 409.12622299 314.18356445 408.28760223 314.60009766 407.42356873 C318.35978027 399.8072485 318.35978027 399.8072485 322 397 C325.0625 396.5625 325.0625 396.5625 328 397 C329.68188477 398.28295898 329.68188477 398.28295898 331 400 C331.05604507 408.0144452 327.98164584 414.31423577 324.5625 421.4375 C324.02407471 422.57678955 323.48564941 423.7160791 322.9309082 424.88989258 C319.66239901 431.7316637 316.29793525 438.51928352 312.6875 445.1875 C312.31633057 445.88609131 311.94516113 446.58468262 311.56274414 447.30444336 C307.48516688 454.58615062 302.18046244 460.58609305 294 463 C275.28529602 466.36921297 257.43963937 460.44802821 242 450 C232.79206666 443.2483729 224.83034362 435.02786786 216.75 427 C216.23634888 426.49179718 215.72269775 425.98359436 215.19348145 425.45999146 C208.32548161 418.64615782 201.99009792 411.6140865 196 404 C195.41138184 403.26539551 194.82276367 402.53079102 194.21630859 401.77392578 C184.96129245 390.20176399 176.36450991 378.22640326 168 366 C167.36255859 365.06865234 166.72511719 364.13730469 166.06835938 363.17773438 C159.64905469 353.7850128 153.26634714 344.36761402 146.91072083 334.93171692 C145.02860396 332.13815112 143.14423256 329.34610914 141.25979614 326.55410767 C139.91024404 324.55227849 138.56432053 322.54804408 137.21850586 320.54370117 C130.62705215 310.36649878 130.62705215 310.36649878 123 301 C122.34 301 121.68 301 121 301 C101.82594382 339.58778806 96.58908452 386.29992622 88.6131897 428.24072266 C86.42180574 439.73950958 84.19827399 451.23179254 81.88671875 462.70703125 C81.65652542 463.88101974 81.42633209 465.05500824 81.18916321 466.26457214 C77.02168167 486.68675146 77.02168167 486.68675146 71 492 C67.30050136 493.36720602 65.58273811 493.20978572 61.875 491.875 C53.93675684 485.81120382 53.75143475 469.78867603 52.39453125 460.4765625 C52.14720927 458.82539558 51.89979334 457.17424274 51.65229797 455.52310181 C47.3442223 426.45569806 43.58637865 397.30340909 39.72368824 368.17429376 C38.92737362 362.17273156 38.12590889 356.17187347 37.3215332 350.17138672 C31.10806463 303.81030664 25.33893715 257.41637851 20.02481079 210.94372559 C19.04936982 202.41406112 18.06092856 193.88594271 17.06713867 185.35839844 C16.98993737 184.6958233 16.91273607 184.03324817 16.83319533 183.350595 C16.45046371 180.06619131 16.06752486 176.78181184 15.68448448 173.49744415 C14.94735518 167.1748628 14.21202453 160.85207235 13.4765625 154.52929688 C13.26289425 152.69314001 13.26289425 152.69314001 13.04490948 150.81988907 C12.3171784 144.56581518 11.59014412 138.31166134 10.86425781 132.05737305 C9.05137332 116.44082184 7.22818292 100.82554483 5.3801384 85.21311188 C5.12990621 83.09802954 4.88013059 80.98289313 4.63084793 78.86769867 C3.95685539 73.15004777 3.27521002 67.43343599 2.57942963 61.71839333 C2.37732322 60.04998803 2.17773476 58.38127522 1.9810257 56.71222496 C0.52713195 44.40609853 -1.83269172 32.69704235 -6 21 C-6.79341853 18.68810048 -7.58533622 16.37568471 -8.375 14.0625 C-8.69210937 13.20785156 -9.00921875 12.35320312 -9.3359375 11.47265625 C-10.12498517 8.53461406 -10.21969239 6.02922007 -10 3 C-7.11328455 -0.33082552 -4.25481974 -0.70913662 0 0 Z " fill="#000000" transform="translate(792,65)"/>
<path d="M0 0 C24.08844614 15.95094416 44.78221675 38.19429771 51.625 66.6875 C51.88023437 67.68201172 52.13546875 68.67652344 52.3984375 69.70117188 C54.0838557 76.54485683 55.66685401 83.66653159 55.375 90.75 C53.0625 94 53.0625 94 50.375 95.75 C49.715 95.75 49.055 95.75 48.375 95.75 C53.23258114 162.95563679 53.23258114 162.95563679 83.1875 219.3125 C86.93185545 221.75510688 90.95926035 223.34333284 95.17578125 224.79296875 C97.52965534 225.81730117 98.79118526 226.74150308 100.375 228.75 C100.875 231.6875 100.875 231.6875 100.375 234.75 C98.5 237.25 98.5 237.25 95.375 238.75 C86.89044953 238.78102212 77.9105714 234.31999077 71.375 229.17578125 C51.13066546 208.3222422 46.29068119 172.11518342 40.375 144.75 C40.15569824 143.73566895 39.93639648 142.72133789 39.71044922 141.67626953 C38.91719097 137.87792972 38.375 134.65963771 38.375 130.75 C37.715 130.75 37.055 130.75 36.375 130.75 C36.30023437 131.62785156 36.22546875 132.50570312 36.1484375 133.41015625 C35.26004717 139.54742719 33.02043599 145.35009057 31 151.1875 C30.78013428 151.82427673 30.56026855 152.46105347 30.33374023 153.11712646 C25.84027778 166.05702278 20.45569153 178.47227157 14.375 190.75 C13.94155273 191.62930176 13.50810547 192.50860352 13.06152344 193.41455078 C7.91134171 203.76762648 2.37412705 213.52746605 -4.625 222.75 C-5.20765625 223.54019531 -5.7903125 224.33039063 -6.390625 225.14453125 C-11.1173763 231.09714563 -16.7565027 234.96408544 -24.359375 236.19140625 C-33.55637452 236.59409973 -41.35722172 233.24121025 -48.625 227.75 C-49.676875 226.96625 -50.72875 226.1825 -51.8125 225.375 C-77.57065606 202.81519591 -90.64195525 166.23125626 -93.109375 133.03417969 C-95.77708046 90.00460363 -98.40871113 30.90122841 -68.875 -4.0546875 C-48.59311064 -23.84361427 -20.88771917 -12.55108899 0 0 Z M-61.13574219 8.79858398 C-63.45110479 11.83246813 -65.10007865 15.04026709 -66.6875 18.5 C-67.02547607 19.2331543 -67.36345215 19.96630859 -67.71166992 20.72167969 C-79.10302389 46.44672351 -79.812339 75.62484074 -79.81030273 103.28955078 C-79.81249086 106.61113275 -79.83071198 109.93238263 -79.84960938 113.25390625 C-79.88993055 128.13867566 -79.4353878 142.6687103 -75.5 157.125 C-75.28754639 157.91044189 -75.07509277 158.69588379 -74.85620117 159.50512695 C-68.41157587 182.13478109 -54.59888137 208.38151576 -33.75390625 220.87109375 C-29.95947211 222.70711027 -27.60972076 222.8973035 -23.625 221.75 C5.14577831 204.95215428 18.49070739 148.11119604 26.375 118.75 C27.1183653 115.83363676 27.83079618 112.91037823 28.53515625 109.984375 C28.71209518 109.25345642 28.88903412 108.52253784 29.07133484 107.76947021 C29.92715205 104.21657471 30.75837456 100.66062349 31.54956055 97.09277344 C31.84773682 95.8143457 32.14591309 94.53591797 32.453125 93.21875 C32.70481445 92.08888672 32.95650391 90.95902344 33.21582031 89.79492188 C34.60010874 86.15868656 36.55973371 84.38178432 39.375 81.75 C42.17336383 73.3549085 35.87645195 60.14213853 32.3125 52.375 C28.53322841 45.33292994 23.5301045 39.8670487 17.90380859 34.27734375 C16.44738056 32.8223112 15.02679938 31.34035628 13.61328125 29.84375 C-0.21088078 15.47469399 -19.09279152 0.19342267 -39.80761719 -0.71850586 C-49.71407464 -0.86499062 -54.73191564 1.20020507 -61.13574219 8.79858398 Z " fill="#000000" transform="translate(511.625,301.25)"/>
<path d="M0 0 C3.5625 0.375 3.5625 0.375 5.26585388 2.10565186 C6.74568151 4.69559837 6.91760803 6.09982323 6.87133789 9.05957031 C6.86475662 9.99279114 6.85817535 10.92601196 6.85139465 11.88751221 C6.82953598 12.89916443 6.80767731 13.91081665 6.78515625 14.953125 C6.77031441 16.54625519 6.77031441 16.54625519 6.75517273 18.17156982 C6.7337288 20.46112116 6.7062705 22.75062238 6.67346191 25.04003906 C6.59162091 31.0942121 6.56939497 37.14847185 6.55078125 43.203125 C6.54682343 44.41738159 6.5428656 45.63163818 6.53878784 46.88269043 C6.4731034 93.57921772 11.96008585 140.34411116 21.00952148 186.1237793 C21.5625 189.375 21.5625 189.375 21.5625 193.375 C39.74096099 190.78859086 57.78057586 187.57707028 75.82519531 184.19335938 C103.81571178 178.97748281 103.81571178 178.97748281 117.375 179.125 C118.13619141 179.11726562 118.89738281 179.10953125 119.68164062 179.1015625 C123.50538997 179.11506206 125.30754772 179.20503181 128.5625 181.375 C129.5 184.75 129.5 184.75 129.5625 188.375 C127.35327101 191.48822885 125.94950401 192.28813073 122.20166016 193.12939453 C120.83662038 193.2723781 119.46960732 193.39721751 118.1015625 193.5078125 C116.52444177 193.67046024 114.94737755 193.83365651 113.37036133 193.99731445 C112.52841217 194.07841461 111.68646301 194.15951477 110.81900024 194.24307251 C89.71970419 196.30311001 69.01545458 200.04360593 48.21533203 204.07275391 C47.08597733 204.29006668 45.95662262 204.50737946 44.79304504 204.73127747 C42.67025138 205.14111647 40.54849614 205.55638594 38.42802429 205.97807312 C37.47829239 206.16231339 36.52856049 206.34655365 35.55004883 206.53637695 C34.7277327 206.69894485 33.90541656 206.86151276 33.05818176 207.02900696 C30.20260685 207.42489439 27.44176702 207.43113769 24.5625 207.375 C24.72578293 208.10511795 24.88906586 208.8352359 25.05729675 209.58747864 C30.41694534 233.63444527 35.37061638 257.75794708 40.23891449 281.90860748 C40.88337709 285.104036 41.52909968 288.29920775 42.17510986 291.49432373 C47.10010991 315.86174802 51.95486074 340.24147983 56.66015625 364.65234375 C56.86386904 365.70864927 57.06758183 366.7649548 57.27746773 367.85326958 C59.23245275 377.99453945 61.17992087 388.13718635 63.10808659 398.28359127 C67.64263099 422.27387062 67.64263099 422.27387062 72.8828125 446.1171875 C73.11273895 447.0994632 73.34266541 448.08173889 73.57955933 449.09378052 C74.76289291 453.90961981 76.29736936 457.94075421 78.5625 462.375 C78.4375 466.125 78.4375 466.125 77.5625 469.375 C74.00211959 471.74858694 72.75353161 472.11459381 68.5625 471.375 C63.75325954 467.26451369 61.46025646 462.58603973 60.01367188 456.55517578 C59.81479118 455.78464434 59.61591049 455.01411289 59.41100311 454.22023201 C56.61841364 443.07615055 54.51917666 431.76859859 52.34375 420.4921875 C51.84798829 417.95200698 51.35150935 415.41196634 50.85437012 412.87205505 C49.79787606 407.47032057 48.74595024 402.06771502 47.69726562 396.66445923 C45.21167783 383.85961198 42.70319082 371.05923817 40.19552612 358.25869942 C39.62630904 355.35305266 39.05741654 352.44734264 38.48880005 349.54157829 C32.84525944 320.70442105 27.08035483 291.89270173 21.25149536 263.09238434 C20.56257951 259.68789293 19.87434689 256.28326401 19.1862793 252.87860107 C17.91765105 246.60229629 16.64679136 240.32644575 15.375 234.05078125 C15.18405258 233.10753935 14.99310516 232.16429745 14.79637146 231.19247246 C14.26756836 228.58164742 13.73752385 225.9710779 13.20703125 223.3605957 C13.05347923 222.60173002 12.89992722 221.84286434 12.74172211 221.06100273 C12.08051397 217.81406363 11.4104412 214.57898126 10.5625 211.375 C-8.24458378 215.71509626 -25.0777416 227.91837454 -41.16015625 238.10107422 C-49.59964385 243.42527137 -49.59964385 243.42527137 -53.5625 243.1875 C-56.4375 242.375 -56.4375 242.375 -58.4375 239.375 C-59.0625 236.625 -59.0625 236.625 -58.4375 233.375 C-53.40779082 227.77652477 -46.82329919 223.85153653 -40.4375 220 C-39.05872681 219.15973267 -39.05872681 219.15973267 -37.65209961 218.30249023 C-34.92138678 216.64708892 -32.18217945 215.00712315 -29.4375 213.375 C-28.67711426 212.92237793 -27.91672852 212.46975586 -27.13330078 212.00341797 C-16.03393694 205.44967757 -4.90138094 199.86960636 7.5625 196.375 C7.34110352 195.07804199 7.11970703 193.78108398 6.89160156 192.44482422 C-1.60963557 142.53701482 -7.63054696 93.74695617 -7.62280273 43.05297852 C-7.62269932 39.47478969 -7.63658772 35.89679141 -7.65357494 32.31864834 C-7.66469322 29.52447108 -7.66672235 26.73034099 -7.66619301 23.93614388 C-7.66792689 21.98080598 -7.6787229 20.02548278 -7.68974304 18.07017517 C-7.68666641 16.88355789 -7.68358978 15.69694061 -7.68041992 14.47436523 C-7.68184494 13.43787338 -7.68326996 12.40138153 -7.68473816 11.33348083 C-7.20173189 5.55377108 -6.3485922 0.69257369 0 0 Z " fill="#000000" transform="translate(683.4375,100.625)"/>
<path d="M0 0 C1.57163564 3.54762415 2.3439605 6.63172853 2.7109375 10.48828125 C2.81905762 11.57061035 2.92717773 12.65293945 3.03857422 13.76806641 C3.14959473 14.93772949 3.26061523 16.10739258 3.375 17.3125 C3.63329099 19.8478737 3.89379428 22.38302278 4.15625 24.91796875 C4.22399628 25.57627686 4.29174255 26.23458496 4.36154175 26.9128418 C9.35967335 75.23274119 19.98289996 119.57413592 41.25 163.5 C41.75104248 164.53631561 41.75104248 164.53631561 42.26220703 165.59356689 C46.10995243 173.51521456 50.15317779 181.20115312 54.74121094 188.72460938 C56 191 56 191 56 193 C56.886875 192.649375 57.77375 192.29875 58.6875 191.9375 C62.12113901 190.96571538 63.6766524 190.83233733 67 192 C68.875 193.125 68.875 193.125 70 195 C70.1061222 200.51835417 68.34135218 203.66743672 64.67578125 207.54296875 C62.17568905 209.71670859 60.29033984 210.58870752 57 211 C48.00721774 208.3212989 43.1666857 199.16719353 38.89477539 191.43774414 C10.73350767 138.93083108 -21.68298135 63.40611326 -11 2 C-7.50671745 -1.7672655 -4.81476125 -1.01850719 0 0 Z " fill="#000000" transform="translate(604,328)"/>
<path d="M0 0 C1.9375 1.0625 1.9375 1.0625 3 3 C3.39309578 6.09562931 3.62338668 8.04336605 3 11 C0.9375 13.5625 0.9375 13.5625 -2 15 C-5.46758942 14.94021398 -7.88826749 14.60965977 -10.9375 12.9375 C-12.70141999 9.72094003 -12.73924763 6.50614591 -12 3 C-8.3655827 -1.51548816 -5.40521016 -1.50144727 0 0 Z " fill="#000000" transform="translate(569,208)"/>
</svg>
